<svg width="512" height="512" viewBox="0 0 512 512" fill="none" xmlns="http://www.w3.org/2000/svg">
  <rect width="512" height="512" rx="100" fill="#D4A853"/>
  <circle cx="256" cy="256" r="140" stroke="white" stroke-width="20" fill="none"/>
  <circle cx="256" cy="256" r="100" stroke="white" stroke-width="15" fill="none"/>
  <circle cx="256" cy="256" r="60" fill="white"/>
  <rect x="236" y="96" width="40" height="60" rx="4" fill="white"/>
  <rect x="116" y="256" width="60" height="40" rx="4" fill="white"/>
  <rect x="336" y="256" width="60" height="40" rx="4" fill="white"/>
  <rect x="236" y="356" width="40" height="60" rx="4" fill="white"/>
  <rect x="146" y="146" width="50" height="50" rx="4" transform="rotate(45 146 146)" fill="white"/>
  <rect x="316" y="146" width="50" height="50" rx="4" transform="rotate(45 316 146)" fill="white"/>
  <rect x="146" y="316" width="50" height="50" rx="4" transform="rotate(45 146 316)" fill="white"/>
  <rect x="316" y="316" width="50" height="50" rx="4" transform="rotate(45 316 316)" fill="white"/>
</svg>
